<?xml version="1.0" encoding="UTF-8" standalone="no"?>
<!-- Created with Inkscape (http://www.inkscape.org/) -->

<svg
   xmlns:dc="http://purl.org/dc/elements/1.1/"
   xmlns:cc="http://creativecommons.org/ns#"
   xmlns:rdf="http://www.w3.org/1999/02/22-rdf-syntax-ns#"
   xmlns:svg="http://www.w3.org/2000/svg"
   xmlns="http://www.w3.org/2000/svg"
   xmlns:sodipodi="http://sodipodi.sourceforge.net/DTD/sodipodi-0.dtd"
   xmlns:inkscape="http://www.inkscape.org/namespaces/inkscape"
   width="89.740791mm"
   height="30.594835mm"
   viewBox="0 0 89.740791 30.594835"
   version="1.1"
   id="svg8"
   inkscape:version="0.92.5 (2060ec1f9f, 2020-04-08)"
   sodipodi:docname="Logo_Final.svg"
   inkscape:export-filename="/home/salw/LogoHosekWhite.png"
   inkscape:export-xdpi="96"
   inkscape:export-ydpi="96">
  <defs
     id="defs2" />
  <sodipodi:namedview
     id="base"
     pagecolor="#ffffff"
     bordercolor="#666666"
     borderopacity="1.0"
     inkscape:pageopacity="0.0"
     inkscape:pageshadow="2"
     inkscape:zoom="0.5"
     inkscape:cx="658.17236"
     inkscape:cy="-269.35735"
     inkscape:document-units="mm"
     inkscape:current-layer="layer1"
     showgrid="false"
     showguides="false"
     inkscape:guide-bbox="true"
     inkscape:window-width="1920"
     inkscape:window-height="1015"
     inkscape:window-x="0"
     inkscape:window-y="0"
     inkscape:window-maximized="1"
     fit-margin-top="0"
     fit-margin-left="0"
     fit-margin-right="0"
     fit-margin-bottom="0">
    <sodipodi:guide
       position="42.836385,-45.094904"
       orientation="1,0"
       id="guide3729"
       inkscape:locked="false" />
    <sodipodi:guide
       position="132.60573,-69.946833"
       orientation="1,0"
       id="guide3731"
       inkscape:locked="false" />
    <inkscape:grid
       type="xygrid"
       id="grid1695"
       originx="0.12507571"
       originy="-266.39996" />
    <sodipodi:guide
       position="112.04382,-15.045794"
       orientation="0,1"
       id="guide1912"
       inkscape:locked="false" />
    <sodipodi:guide
       position="82.145905,-94.420792"
       orientation="0,1"
       inkscape:locked="false"
       id="guide1914" />
    <sodipodi:guide
       position="87.741432,-48.338853"
       orientation="1,0"
       id="guide1924"
       inkscape:locked="false" />
    <sodipodi:guide
       position="87.745566,-48.303713"
       orientation="0,1"
       id="guide1952"
       inkscape:locked="false" />
    <sodipodi:guide
       position="0.12507571,28.610465"
       orientation="1,0"
       id="guide1605"
       inkscape:locked="false" />
    <sodipodi:guide
       position="9.385492,30.594835"
       orientation="0,1"
       id="guide1607"
       inkscape:locked="false" />
  </sodipodi:namedview>
  <metadata
     id="metadata5">
    <rdf:RDF>
      <cc:Work
         rdf:about="">
        <dc:format>image/svg+xml</dc:format>
        <dc:type
           rdf:resource="http://purl.org/dc/dcmitype/StillImage" />
        <dc:title></dc:title>
      </cc:Work>
    </rdf:RDF>
  </metadata>
  <g
     inkscape:label="Layer 1"
     inkscape:groupmode="layer"
     id="layer1"
     transform="translate(0.12507571,-0.00520054)">
    <g
       id="g1950"
       transform="translate(-42.871284,-63.600705)">
      <path
         transform="scale(0.26458333)"
         id="path1853"
         d="m 162.0332,254.33008 v 65.33203 h 15.11914 V 292.875 h 29.67969 v 26.78711 h 15.12109 v -65.33203 h -15.12109 v 25.75976 h -29.67969 v -25.75976 z"
         style="font-style:normal;font-variant:normal;font-weight:bold;font-stretch:normal;font-size:24.69444466px;line-height:1.25;font-family:Montserrat;-inkscape-font-specification:'Montserrat Bold';letter-spacing:0px;word-spacing:0px;fill:#143f68;fill-opacity:1;stroke:none;stroke-width:0.99999994"
         inkscape:connector-curvature="0" />
      <path
         transform="scale(0.26458333)"
         id="path1851"
         d="m 269.08594,253.20898 c -5.10222,0 -9.83195,0.83954 -14.1875,2.51954 -4.35556,1.68 -8.15117,4.04486 -11.38672,7.09375 -3.23556,3.04888 -5.75415,6.6277 -7.5586,10.73437 -1.74222,4.10667 -2.61328,8.58612 -2.61328,13.43945 0,4.85334 0.87106,9.33279 2.61328,13.43946 1.80445,4.10666 4.29151,7.68548 7.46485,10.73437 3.23555,3.04889 7.03116,5.4118 11.38672,7.0918 4.41778,1.68 9.21055,2.52148 14.375,2.52148 5.10222,0 9.79846,-0.84148 14.09179,-2.52148 4.35556,-1.68 8.12159,-4.01333 11.29493,-7 3.23555,-3.04889 5.75415,-6.62575 7.55859,-10.73242 1.80444,-4.16889 2.70703,-8.67987 2.70703,-13.53321 0,-4.91555 -0.90259,-9.395 -2.70703,-13.43945 -1.80444,-4.10667 -4.32304,-7.68549 -7.55859,-10.73437 -3.17334,-3.04889 -6.93937,-5.41375 -11.29493,-7.09375 -4.29333,-1.68 -9.0211,-2.51954 -14.18554,-2.51954 z m 0,12.88086 c 2.92444,0 5.63025,0.49664 8.11914,1.49219 2.48889,0.99556 4.63696,2.4263 6.4414,4.29297 1.86667,1.86667 3.29742,4.07584 4.29297,6.62695 1.05778,2.55111 1.58594,5.38303 1.58594,8.49414 0,3.11111 -0.52816,5.94108 -1.58594,8.49219 -0.99555,2.55111 -2.4263,4.76029 -4.29297,6.62695 -1.86666,1.86667 -4.04626,3.29937 -6.53515,4.29493 -2.42667,0.99555 -5.10095,1.49218 -8.02539,1.49218 -2.92445,0 -5.63221,-0.49663 -8.1211,-1.49218 -2.48889,-0.99556 -4.66653,-2.42826 -6.5332,-4.29493 -1.80444,-1.86666 -3.23519,-4.07584 -4.29297,-6.62695 -0.99555,-2.61333 -1.49219,-5.4433 -1.49219,-8.49219 0,-3.11111 0.49664,-5.94303 1.49219,-8.49414 1.05778,-2.55111 2.52005,-4.76028 4.38672,-6.62695 1.86667,-1.86667 4.01279,-3.29741 6.43945,-4.29297 2.48889,-0.99555 5.19665,-1.49219 8.1211,-1.49219 z"
         style="font-style:normal;font-variant:normal;font-weight:bold;font-stretch:normal;font-size:24.69444466px;line-height:1.25;font-family:Montserrat;-inkscape-font-specification:'Montserrat Bold';letter-spacing:0px;word-spacing:0px;fill:#143f68;fill-opacity:1;stroke:none;stroke-width:0.99999994"
         inkscape:connector-curvature="0" />
      <path
         transform="scale(0.26458333)"
         id="path1849"
         d="m 332.60547,253.81445 c -2.99444,0.45806 -5.74788,1.13522 -8.08008,2.19532 -4.04444,1.80444 -7.09315,4.26193 -9.14648,7.37304 -1.99111,3.04889 -2.98633,6.4405 -2.98633,10.17383 0,3.48445 0.68384,6.34594 2.05273,8.58594 1.43111,2.24 3.26781,4.04517 5.50781,5.41406 2.24,1.36889 4.6975,2.48827 7.37305,3.35938 2.73778,0.87111 5.44359,1.61801 8.11914,2.24023 2.73778,0.56 5.2268,1.18274 7.4668,1.86719 2.24,0.62222 4.04517,1.46175 5.41406,2.51953 1.36889,0.99555 2.05274,2.36324 2.05274,4.10547 0,1.36888 -0.43553,2.58284 -1.30664,3.64062 -0.87111,1.05778 -2.24076,1.89731 -4.10743,2.51953 -1.80444,0.56 -4.19888,0.83985 -7.18554,0.83985 -3.92,0 -7.8102,-0.62079 -11.66797,-1.86524 -3.79556,-1.30666 -7.09258,-2.95615 -9.89258,-4.94726 l -5.13281,11.38672 c 2.92444,2.24 6.78115,4.07475 11.57226,5.50586 4.79111,1.36889 9.80068,2.05468 15.02735,2.05468 6.22222,0 11.35594,-0.93411 15.40039,-2.80078 4.10666,-1.86666 7.1869,-4.32416 9.24023,-7.37304 2.05334,-3.04889 3.08008,-6.40897 3.08008,-10.08008 0,-3.42222 -0.71537,-6.25414 -2.14648,-8.49414 -1.36889,-2.24 -3.17407,-4.04322 -5.41407,-5.41211 -2.24,-1.36889 -4.72901,-2.45869 -7.46679,-3.26758 -2.67556,-0.80889 -5.38137,-1.52426 -8.11914,-2.14649 -2.67556,-0.62222 -5.135,-1.24496 -7.375,-1.86718 -2.24,-0.62222 -4.04323,-1.43023 -5.41211,-2.42578 -1.36889,-1.05778 -2.05469,-2.42743 -2.05469,-4.10743 0,-1.43111 0.40595,-2.67464 1.21484,-3.73242 0.80889,-1.12 2.14701,-2.02258 4.01367,-2.70703 1.86667,-0.68444 4.26111,-1.02734 7.18555,-1.02734 2.92445,0 5.91205,0.43553 8.96094,1.30664 3.04889,0.80889 6.09759,2.0859 9.14648,3.82812 l 4.66602,-11.48047 c -3.04889,-1.92888 -6.56465,-3.35963 -10.54688,-4.29297 -1.62027,-0.40506 -3.25756,-0.67185 -4.89843,-0.9121 l -5.15625,4.72851 z m 43.16015,0.51563 v 65.33203 h 50.58594 V 307.5293 H 390.79297 V 292.41016 H 421.125 v -11.76172 h -30.33203 v -14.18555 h 34.3457 v -12.13281 z m 62.62696,0 v 65.33203 h 15.02539 v -16.49219 l 8.75586,-9.13867 20.92578,25.63086 h 17.63867 l -28.63476,-36.22461 27.04882,-29.10742 h -16.80078 l -28.93359,30.48828 v -30.48828 z"
         style="font-style:normal;font-variant:normal;font-weight:bold;font-stretch:normal;font-size:24.69444466px;line-height:1.25;font-family:Montserrat;-inkscape-font-specification:'Montserrat Bold';letter-spacing:0px;word-spacing:0px;fill:#143f68;fill-opacity:1;stroke:none;stroke-width:0.99999994"
         inkscape:connector-curvature="0" />
      <g
         aria-label="AEROSPACE CONSULTING"
         transform="scale(0.99986841,1.0001316)"
         style="font-style:normal;font-weight:normal;font-size:6.34916401px;line-height:1.25;font-family:sans-serif;letter-spacing:0px;word-spacing:0px;fill:#143f68;fill-opacity:1;stroke:none;stroke-width:0.26454851"
         id="text3727">
        <path
           d="m 42.751834,94.108894 2.065679,-4.634537 h 1.059323 l 2.0723,4.634537 H 46.823605 L 45.128689,90.01726 h 0.423729 l -1.701537,4.091634 z m 1.032839,-0.993115 0.284693,-0.814354 h 2.383476 l 0.291314,0.814354 z"
           style="font-style:normal;font-variant:normal;font-weight:bold;font-stretch:normal;font-size:6.62076712px;font-family:Montserrat;-inkscape-font-specification:'Montserrat Bold';fill:#143f68;fill-opacity:1;stroke-width:0.26454851"
           id="path1708"
           inkscape:connector-curvature="0" />
        <path
           d="m 48.432444,94.108894 v -4.634537 h 3.502386 v 0.8607 h -2.436443 v 2.913138 H 52.0209 v 0.860699 z m 0.986494,-1.933264 v -0.834216 h 2.231199 v 0.834216 z"
           style="font-style:normal;font-variant:normal;font-weight:bold;font-stretch:normal;font-size:6.62076712px;font-family:Montserrat;-inkscape-font-specification:'Montserrat Bold';fill:#143f68;fill-opacity:1;stroke-width:0.26454851"
           id="path1710"
           inkscape:connector-curvature="0" />
        <path
           d="m 52.874976,94.108894 v -4.634537 h 1.979609 q 0.966632,0 1.502914,0.450213 0.536282,0.443591 0.536282,1.231462 0,0.51642 -0.244968,0.893804 -0.244969,0.370763 -0.695181,0.569386 -0.450212,0.198623 -1.072564,0.198623 H 53.470845 L 53.94754,92.34777 v 1.761124 z m 2.946241,0 -1.158634,-1.681674 h 1.145392 l 1.171876,1.681674 z m -1.873677,-1.64195 -0.476695,-0.503178 h 1.350636 q 0.496558,0 0.741526,-0.211865 0.244968,-0.218485 0.244968,-0.595869 0,-0.384004 -0.244968,-0.595869 -0.244968,-0.211864 -0.741526,-0.211864 H 53.470845 L 53.94754,89.8385 Z"
           style="font-style:normal;font-variant:normal;font-weight:bold;font-stretch:normal;font-size:6.62076712px;font-family:Montserrat;-inkscape-font-specification:'Montserrat Bold';fill:#143f68;fill-opacity:1;stroke-width:0.26454851"
           id="path1712"
           inkscape:connector-curvature="0" />
        <path
           d="m 59.992292,94.188344 q -0.549524,0 -1.019598,-0.178761 -0.463454,-0.178761 -0.807734,-0.503178 -0.337659,-0.324418 -0.529661,-0.761389 -0.185381,-0.43697 -0.185381,-0.95339 0,-0.51642 0.185381,-0.953391 0.192002,-0.43697 0.536282,-0.761388 0.34428,-0.324417 0.807734,-0.503178 0.463453,-0.178761 1.006356,-0.178761 0.549524,0 1.006357,0.178761 0.463454,0.178761 0.801113,0.503178 0.34428,0.324418 0.536282,0.761388 0.192002,0.43035 0.192002,0.953391 0,0.51642 -0.192002,0.960011 -0.192002,0.436971 -0.536282,0.761388 -0.337659,0.317797 -0.801113,0.496558 -0.456833,0.178761 -0.999736,0.178761 z m -0.0066,-0.913666 q 0.311176,0 0.569386,-0.105933 0.264831,-0.105932 0.463454,-0.304555 0.198623,-0.198623 0.304555,-0.470074 0.112553,-0.271452 0.112553,-0.60249 0,-0.331038 -0.112553,-0.60249 -0.105932,-0.271451 -0.304555,-0.470074 -0.192002,-0.198623 -0.456833,-0.304556 -0.264831,-0.105932 -0.576007,-0.105932 -0.311176,0 -0.576006,0.105932 -0.25821,0.105933 -0.456833,0.304556 -0.198623,0.198623 -0.311176,0.470074 -0.105933,0.271452 -0.105933,0.60249 0,0.324417 0.105933,0.60249 0.112553,0.271451 0.304555,0.470074 0.198623,0.198623 0.463454,0.304555 0.26483,0.105933 0.576006,0.105933 z"
           style="font-style:normal;font-variant:normal;font-weight:bold;font-stretch:normal;font-size:6.62076712px;font-family:Montserrat;-inkscape-font-specification:'Montserrat Bold';fill:#143f68;fill-opacity:1;stroke-width:0.26454851"
           id="path1714"
           inkscape:connector-curvature="0" />
        <path
           d="m 64.851933,94.188344 q -0.556145,0 -1.065944,-0.145657 -0.509799,-0.152278 -0.820975,-0.390626 l 0.364142,-0.807733 q 0.297935,0.211864 0.701802,0.3509 0.410487,0.132416 0.827595,0.132416 0.317797,0 0.5098,-0.05959 0.198623,-0.06621 0.291313,-0.178761 0.09269,-0.112553 0.09269,-0.25821 0,-0.185381 -0.145657,-0.291313 -0.145657,-0.112553 -0.384004,-0.178761 -0.238348,-0.07283 -0.529662,-0.132416 -0.284693,-0.06621 -0.576006,-0.158898 -0.284693,-0.09269 -0.523041,-0.238348 -0.238348,-0.145656 -0.390625,-0.384004 -0.145657,-0.238348 -0.145657,-0.609111 0,-0.397246 0.211864,-0.721663 0.218486,-0.331039 0.648836,-0.523041 0.43697,-0.198623 1.092426,-0.198623 0.436971,0 0.8607,0.105932 0.423729,0.09931 0.748146,0.304556 l -0.331038,0.814354 q -0.324417,-0.185381 -0.648835,-0.271451 -0.324418,-0.09269 -0.635594,-0.09269 -0.311176,0 -0.509799,0.07283 -0.198623,0.07283 -0.284693,0.192003 -0.08607,0.112553 -0.08607,0.26483 0,0.178761 0.145657,0.291314 0.145657,0.105932 0.384005,0.17214 0.238347,0.06621 0.52304,0.132415 0.291314,0.06621 0.576007,0.152278 0.291314,0.08607 0.529661,0.231727 0.238348,0.145657 0.384005,0.384004 0.152278,0.238348 0.152278,0.60249 0,0.390625 -0.218486,0.715043 -0.218485,0.324418 -0.655456,0.523041 -0.43035,0.198623 -1.092426,0.198623 z"
           style="font-style:normal;font-variant:normal;font-weight:bold;font-stretch:normal;font-size:6.62076712px;font-family:Montserrat;-inkscape-font-specification:'Montserrat Bold';fill:#143f68;fill-opacity:1;stroke-width:0.26454851"
           id="path1716"
           inkscape:connector-curvature="0" />
        <path
           d="m 67.553197,94.108894 v -4.634537 h 2.006093 q 0.622352,0 1.072564,0.205244 0.450212,0.198623 0.69518,0.576007 0.244969,0.377384 0.244969,0.900424 0,0.51642 -0.244969,0.893804 -0.244968,0.377384 -0.69518,0.582627 -0.450212,0.198623 -1.072564,0.198623 h -1.410224 l 0.476695,-0.483316 v 1.761124 z m 1.072564,-1.64195 -0.476695,-0.509799 h 1.350637 q 0.496557,0 0.741526,-0.211865 0.244968,-0.211864 0.244968,-0.589248 0,-0.384004 -0.244968,-0.595869 -0.244969,-0.211864 -0.741526,-0.211864 H 68.149066 L 68.625761,89.8385 Z"
           style="font-style:normal;font-variant:normal;font-weight:bold;font-stretch:normal;font-size:6.62076712px;font-family:Montserrat;-inkscape-font-specification:'Montserrat Bold';fill:#143f68;fill-opacity:1;stroke-width:0.26454851"
           id="path1718"
           inkscape:connector-curvature="0" />
        <path
           d="m 71.492543,94.108894 2.065679,-4.634537 h 1.059323 l 2.0723,4.634537 h -1.12553 L 73.869398,90.01726 h 0.423729 l -1.701537,4.091634 z m 1.03284,-0.993115 0.284692,-0.814354 h 2.383477 l 0.291313,0.814354 z"
           style="font-style:normal;font-variant:normal;font-weight:bold;font-stretch:normal;font-size:6.62076712px;font-family:Montserrat;-inkscape-font-specification:'Montserrat Bold';fill:#143f68;fill-opacity:1;stroke-width:0.26454851"
           id="path1720"
           inkscape:connector-curvature="0" />
        <path
           d="m 79.324903,94.188344 q -0.536282,0 -0.999736,-0.17214 -0.456832,-0.178761 -0.794492,-0.503179 -0.337659,-0.324417 -0.529661,-0.761388 -0.185381,-0.436971 -0.185381,-0.960011 0,-0.523041 0.185381,-0.960011 0.192002,-0.436971 0.529661,-0.761389 0.34428,-0.324417 0.801113,-0.496557 0.456833,-0.178761 0.999736,-0.178761 0.60249,0 1.085806,0.211865 0.489937,0.205243 0.820975,0.60911 l -0.68856,0.635594 Q 80.311398,90.580025 80.020084,90.44761 79.72877,90.308574 79.38449,90.308574 q -0.324417,0 -0.595869,0.105932 -0.271451,0.105933 -0.470074,0.304556 -0.198623,0.198623 -0.311176,0.470074 -0.105933,0.271452 -0.105933,0.60249 0,0.331038 0.105933,0.60249 0.112553,0.271451 0.311176,0.470074 0.198623,0.198623 0.470074,0.304555 0.271452,0.105933 0.595869,0.105933 0.34428,0 0.635594,-0.132416 0.291314,-0.139036 0.529661,-0.417108 l 0.68856,0.635594 q -0.331038,0.403866 -0.820975,0.615731 -0.483316,0.211865 -1.092427,0.211865 z"
           style="font-style:normal;font-variant:normal;font-weight:bold;font-stretch:normal;font-size:6.62076712px;font-family:Montserrat;-inkscape-font-specification:'Montserrat Bold';fill:#143f68;fill-opacity:1;stroke-width:0.26454851"
           id="path1722"
           inkscape:connector-curvature="0" />
        <path
           d="m 81.900373,94.108894 v -4.634537 h 3.502386 v 0.8607 h -2.436443 v 2.913138 h 2.522513 v 0.860699 z m 0.986494,-1.933264 v -0.834216 h 2.231199 v 0.834216 z"
           style="font-style:normal;font-variant:normal;font-weight:bold;font-stretch:normal;font-size:6.62076712px;font-family:Montserrat;-inkscape-font-specification:'Montserrat Bold';fill:#143f68;fill-opacity:1;stroke-width:0.26454851"
           id="path1724"
           inkscape:connector-curvature="0" />
        <path
           d="m 90.434534,94.188344 q -0.536282,0 -0.999736,-0.17214 -0.456833,-0.178761 -0.794492,-0.503179 -0.337659,-0.324417 -0.529661,-0.761388 -0.185382,-0.436971 -0.185382,-0.960011 0,-0.523041 0.185382,-0.960011 0.192002,-0.436971 0.529661,-0.761389 0.34428,-0.324417 0.801113,-0.496557 0.456833,-0.178761 0.999736,-0.178761 0.602489,0 1.085805,0.211865 0.489937,0.205243 0.820976,0.60911 l -0.68856,0.635594 q -0.238348,-0.271452 -0.529662,-0.403867 -0.291313,-0.139036 -0.635593,-0.139036 -0.324418,0 -0.595869,0.105932 -0.271452,0.105933 -0.470075,0.304556 -0.198623,0.198623 -0.311176,0.470074 -0.105932,0.271452 -0.105932,0.60249 0,0.331038 0.105932,0.60249 0.112553,0.271451 0.311176,0.470074 0.198623,0.198623 0.470075,0.304555 0.271451,0.105933 0.595869,0.105933 0.34428,0 0.635593,-0.132416 0.291314,-0.139036 0.529662,-0.417108 l 0.68856,0.635594 q -0.331039,0.403866 -0.820976,0.615731 -0.483316,0.211865 -1.092426,0.211865 z"
           style="font-style:normal;font-variant:normal;font-weight:bold;font-stretch:normal;font-size:6.62076712px;font-family:Montserrat;-inkscape-font-specification:'Montserrat Bold';fill:#143f68;fill-opacity:1;stroke-width:0.26454851"
           id="path1726"
           inkscape:connector-curvature="0" />
        <path
           d="m 95.055822,94.188344 q -0.549524,0 -1.019598,-0.178761 -0.463454,-0.178761 -0.807734,-0.503178 -0.337659,-0.324418 -0.529661,-0.761389 -0.185382,-0.43697 -0.185382,-0.95339 0,-0.51642 0.185382,-0.953391 0.192002,-0.43697 0.536282,-0.761388 0.34428,-0.324417 0.807734,-0.503178 0.463453,-0.178761 1.006356,-0.178761 0.549524,0 1.006357,0.178761 0.463454,0.178761 0.801113,0.503178 0.34428,0.324418 0.536282,0.761388 0.192002,0.43035 0.192002,0.953391 0,0.51642 -0.192002,0.960011 -0.192002,0.436971 -0.536282,0.761388 -0.337659,0.317797 -0.801113,0.496558 -0.456833,0.178761 -0.999736,0.178761 z m -0.0066,-0.913666 q 0.311176,0 0.569386,-0.105933 0.264831,-0.105932 0.463454,-0.304555 0.198623,-0.198623 0.304555,-0.470074 0.112553,-0.271452 0.112553,-0.60249 0,-0.331038 -0.112553,-0.60249 -0.105932,-0.271451 -0.304555,-0.470074 -0.192002,-0.198623 -0.456833,-0.304556 -0.264831,-0.105932 -0.576007,-0.105932 -0.311176,0 -0.576006,0.105932 -0.25821,0.105933 -0.456833,0.304556 -0.198623,0.198623 -0.311176,0.470074 -0.105933,0.271452 -0.105933,0.60249 0,0.324417 0.105933,0.60249 0.112553,0.271451 0.304555,0.470074 0.198623,0.198623 0.463454,0.304555 0.26483,0.105933 0.576006,0.105933 z"
           style="font-style:normal;font-variant:normal;font-weight:bold;font-stretch:normal;font-size:6.62076712px;font-family:Montserrat;-inkscape-font-specification:'Montserrat Bold';fill:#143f68;fill-opacity:1;stroke-width:0.26454851"
           id="path1728"
           inkscape:connector-curvature="0" />
        <path
           d="m 98.392686,94.108894 v -4.634537 h 0.887183 l 2.734381,3.336867 h -0.43035 v -3.336867 h 1.05932 v 4.634537 h -0.88056 l -2.741001,-3.336866 h 0.43035 v 3.336866 z"
           style="font-style:normal;font-variant:normal;font-weight:bold;font-stretch:normal;font-size:6.62076712px;font-family:Montserrat;-inkscape-font-specification:'Montserrat Bold';fill:#143f68;fill-opacity:1;stroke-width:0.26454851"
           id="path1730"
           inkscape:connector-curvature="0" />
        <path
           d="m 105.26503,94.188344 q -0.55614,0 -1.06594,-0.145657 -0.5098,-0.152278 -0.82097,-0.390626 l 0.36414,-0.807733 q 0.29793,0.211864 0.7018,0.3509 0.41049,0.132416 0.82759,0.132416 0.3178,0 0.5098,-0.05959 0.19863,-0.06621 0.29132,-0.178761 0.0927,-0.112553 0.0927,-0.25821 0,-0.185381 -0.14566,-0.291313 -0.14566,-0.112553 -0.384,-0.178761 -0.23835,-0.07283 -0.52966,-0.132416 -0.2847,-0.06621 -0.57601,-0.158898 -0.28469,-0.09269 -0.52304,-0.238348 -0.23835,-0.145656 -0.39063,-0.384004 -0.14565,-0.238348 -0.14565,-0.609111 0,-0.397246 0.21186,-0.721663 0.21849,-0.331039 0.64884,-0.523041 0.43697,-0.198623 1.09242,-0.198623 0.43697,0 0.8607,0.105932 0.42373,0.09931 0.74815,0.304556 l -0.33104,0.814354 q -0.32442,-0.185381 -0.64883,-0.271451 -0.32442,-0.09269 -0.6356,-0.09269 -0.31117,0 -0.5098,0.07283 -0.19862,0.07283 -0.28469,0.192003 -0.0861,0.112553 -0.0861,0.26483 0,0.178761 0.14566,0.291314 0.14565,0.105932 0.384,0.17214 0.23835,0.06621 0.52304,0.132415 0.29132,0.06621 0.57601,0.152278 0.29131,0.08607 0.52966,0.231727 0.23835,0.145657 0.384,0.384004 0.15228,0.238348 0.15228,0.60249 0,0.390625 -0.21848,0.715043 -0.21849,0.324418 -0.65546,0.523041 -0.43035,0.198623 -1.09243,0.198623 z"
           style="font-style:normal;font-variant:normal;font-weight:bold;font-stretch:normal;font-size:6.62076712px;font-family:Montserrat;-inkscape-font-specification:'Montserrat Bold';fill:#143f68;fill-opacity:1;stroke-width:0.26454851"
           id="path1732"
           inkscape:connector-curvature="0" />
        <path
           d="m 110.02536,94.188344 q -0.9865,0 -1.54264,-0.549524 -0.55615,-0.549524 -0.55615,-1.569122 v -2.595341 h 1.07257 v 2.555616 q 0,0.662077 0.27145,0.953391 0.27145,0.291314 0.76139,0.291314 0.48993,0 0.76139,-0.291314 0.27145,-0.291314 0.27145,-0.953391 v -2.555616 h 1.05932 v 2.595341 q 0,1.019598 -0.55614,1.569122 -0.55615,0.549524 -1.54264,0.549524 z"
           style="font-style:normal;font-variant:normal;font-weight:bold;font-stretch:normal;font-size:6.62076712px;font-family:Montserrat;-inkscape-font-specification:'Montserrat Bold';fill:#143f68;fill-opacity:1;stroke-width:0.26454851"
           id="path1734"
           inkscape:connector-curvature="0" />
        <path
           d="m 113.18345,94.108894 v -4.634537 h 1.07256 v 3.760596 h 2.32389 v 0.873941 z"
           style="font-style:normal;font-variant:normal;font-weight:bold;font-stretch:normal;font-size:6.62076712px;font-family:Montserrat;-inkscape-font-specification:'Montserrat Bold';fill:#143f68;fill-opacity:1;stroke-width:0.26454851"
           id="path1736"
           inkscape:connector-curvature="0" />
        <path
           d="m 117.64583,94.108894 v -3.760595 h -1.48305 v -0.873942 h 4.03867 v 0.873942 h -1.48306 v 3.760595 z"
           style="font-style:normal;font-variant:normal;font-weight:bold;font-stretch:normal;font-size:6.62076712px;font-family:Montserrat;-inkscape-font-specification:'Montserrat Bold';fill:#143f68;fill-opacity:1;stroke-width:0.26454851"
           id="path1738"
           inkscape:connector-curvature="0" />
        <path
           d="M 120.77744,94.108894 V 89.474357 H 121.85 v 4.634537 z"
           style="font-style:normal;font-variant:normal;font-weight:bold;font-stretch:normal;font-size:6.62076712px;font-family:Montserrat;-inkscape-font-specification:'Montserrat Bold';fill:#143f68;fill-opacity:1;stroke-width:0.26454851"
           id="path1740"
           inkscape:connector-curvature="0" />
        <path
           d="m 122.94905,94.108894 v -4.634537 h 0.88718 l 2.73438,3.336867 h -0.43035 v -3.336867 h 1.05932 v 4.634537 h -0.88056 l -2.741,-3.336866 h 0.43035 v 3.336866 z"
           style="font-style:normal;font-variant:normal;font-weight:bold;font-stretch:normal;font-size:6.62076712px;font-family:Montserrat;-inkscape-font-specification:'Montserrat Bold';fill:#143f68;fill-opacity:1;stroke-width:0.26454851"
           id="path1742"
           inkscape:connector-curvature="0" />
        <path
           d="m 130.53644,94.188344 q -0.54952,0 -1.01298,-0.17214 -0.45683,-0.178761 -0.80111,-0.503179 -0.33766,-0.324417 -0.52966,-0.761388 -0.18538,-0.436971 -0.18538,-0.960011 0,-0.523041 0.18538,-0.960011 0.192,-0.436971 0.53628,-0.761389 0.34428,-0.324417 0.80773,-0.496557 0.46346,-0.178761 1.0196,-0.178761 0.61573,0 1.10567,0.205244 0.49656,0.205244 0.83422,0.595869 l -0.68856,0.635594 q -0.25159,-0.264831 -0.54953,-0.390626 -0.29793,-0.132415 -0.64883,-0.132415 -0.33766,0 -0.61573,0.105932 -0.27808,0.105933 -0.48332,0.304556 -0.19862,0.198623 -0.31118,0.470074 -0.10593,0.271452 -0.10593,0.60249 0,0.324417 0.10593,0.595869 0.11256,0.271451 0.31118,0.476695 0.20524,0.198623 0.4767,0.304555 0.27807,0.105933 0.60911,0.105933 0.31779,0 0.61573,-0.09931 0.30455,-0.105932 0.58925,-0.3509 l 0.60911,0.774629 q -0.37739,0.284693 -0.88057,0.436971 -0.49655,0.152278 -0.99311,0.152278 z m 1.87368,-0.589249 -0.97988,-0.139036 v -1.741262 h 0.97988 z"
           style="font-style:normal;font-variant:normal;font-weight:bold;font-stretch:normal;font-size:6.62076712px;font-family:Montserrat;-inkscape-font-specification:'Montserrat Bold';fill:#143f68;fill-opacity:1;stroke-width:0.26454851"
           id="path1744"
           inkscape:connector-curvature="0" />
      </g>
      <path
         inkscape:connector-curvature="0"
         id="path4672"
         d="m 95.096256,63.605906 -7.235733,2.994131 2.550748,1.296046 z m -0.966864,0.127125 -9.38806,1.282091 2.774508,1.409732 z"
         style="fill:#143f68;fill-opacity:1;stroke:#ffffff;stroke-width:0;stroke-miterlimit:4;stroke-dasharray:none" />
    </g>
  </g>
</svg>
